<svg width="1637" height="664" viewBox="0 0 1637 664" fill="none" xmlns="http://www.w3.org/2000/svg">
<path d="M858.534 226.136L860.736 232.677L867.638 232.603L862.098 236.72L864.3 243.261L858.674 239.264L853.133 243.38L855.196 236.793L849.569 232.796L856.471 232.722L858.534 226.136Z" fill="white"/>
<path d="M347.764 2.32115L351.148 8.33684L357.915 6.97744L353.239 12.0547L356.623 18.0704L350.35 15.1927L345.674 20.27L346.473 13.4141L340.199 10.5364L346.966 9.17699L347.764 2.32115Z" fill="white"/>
<path d="M1056.18 88.4588L1059.94 94.2474L1066.6 92.461L1062.26 97.825L1066.02 103.614L1059.57 101.14L1055.23 106.504L1055.59 99.6114L1049.15 97.1379L1055.82 95.3515L1056.18 88.4588Z" fill="white"/>
<path d="M523.176 312.459L526.935 318.247L533.602 316.461L529.259 321.825L533.018 327.614L526.574 325.14L522.231 330.504L522.592 323.611L516.148 321.138L522.815 319.352L523.176 312.459Z" fill="white"/>
<path d="M850.781 59.671L850.62 66.5713L857.133 68.8568L850.52 70.8359L850.359 77.7362L846.434 72.0591L839.821 74.0382L844.008 68.5504L840.082 62.8733L846.595 65.1588L850.781 59.671Z" fill="white"/>
<path d="M9.1763 12.4588L12.9355 18.2474L19.6024 16.461L15.2588 21.825L19.018 27.6136L12.5742 25.1401L8.23058 30.5041L8.59181 23.6114L2.1481 21.1379L8.81506 19.3515L9.1763 12.4588Z" fill="white"/>
<path d="M188.176 203.459L191.935 209.247L198.602 207.461L194.259 212.825L198.018 218.614L191.574 216.14L187.231 221.504L187.592 214.611L181.148 212.138L187.815 210.351L188.176 203.459Z" fill="white"/>
<path d="M60.385 269.408L58.9499 276.159L64.9274 279.61L58.063 280.332L56.628 287.083L53.8206 280.778L46.9563 281.499L52.0856 276.881L49.2782 270.575L55.2557 274.026L60.385 269.408Z" fill="white"/>
<path d="M1599.18 247.459L1602.94 253.247L1609.6 251.461L1605.26 256.825L1609.02 262.614L1602.57 260.14L1598.23 265.504L1598.59 258.611L1592.15 256.138L1598.82 254.351L1599.18 247.459Z" fill="white"/>
<path d="M1622.18 23.4588L1625.94 29.2474L1632.6 27.461L1628.26 32.825L1632.02 38.6136L1625.57 36.1401L1621.23 41.5041L1621.59 34.6114L1615.15 32.1379L1621.82 30.3515L1622.18 23.4588Z" fill="white"/>
<path d="M1333.18 109.459L1336.94 115.247L1343.6 113.461L1339.26 118.825L1343.02 124.614L1336.57 122.14L1332.23 127.504L1332.59 120.611L1326.15 118.138L1332.82 116.351L1333.18 109.459Z" fill="white"/>
<path d="M1418.49 308.204L1421.4 314.465L1428.25 313.636L1423.2 318.334L1426.1 324.595L1420.07 321.237L1415.01 325.936L1416.34 319.163L1410.31 315.806L1417.17 314.977L1418.49 308.204Z" fill="white"/>
<path d="M548.101 121.15L550.6 127.584L557.491 127.196L552.144 131.561L554.643 137.995L548.839 134.258L543.492 138.623L545.253 131.949L539.45 128.212L546.341 127.824L548.101 121.15Z" fill="white"/>
<path d="M1147.6 177.632L1151.72 183.172L1158.26 180.969L1154.26 186.596L1158.38 192.136L1151.79 190.074L1147.8 195.701L1147.72 188.8L1141.14 186.738L1147.68 184.534L1147.6 177.632Z" fill="white"/>
<path d="M1186.18 333.459L1189.94 339.247L1196.6 337.461L1192.26 342.825L1196.02 348.614L1189.57 346.14L1185.23 351.504L1185.59 344.611L1179.15 342.138L1185.82 340.352L1186.18 333.459Z" fill="white"/>
<path d="M1399.44 513.437L1397.96 520.18L1403.91 523.667L1397.05 524.347L1395.57 531.089L1392.8 524.766L1385.93 525.446L1391.09 520.859L1388.32 514.536L1394.28 518.024L1399.44 513.437Z" fill="white"/>
<path d="M845.176 436.459L848.935 442.247L855.602 440.461L851.259 445.825L855.018 451.613L848.574 449.14L844.231 454.504L844.592 447.611L838.148 445.138L844.815 443.351L845.176 436.459Z" fill="white"/>
<path d="M32.6353 586.135L34.7681 592.699H41.6703L36.0863 596.756L38.2192 603.321L32.6353 599.264L27.0513 603.321L29.1842 596.756L23.6002 592.699H30.5024L32.6353 586.135Z" fill="white"/>
<path d="M329.176 447.459L332.935 453.247L339.602 451.461L335.259 456.825L339.018 462.614L332.574 460.14L328.231 465.504L328.592 458.611L322.148 456.138L328.815 454.352L329.176 447.459Z" fill="white"/>
<path d="M1595.3 549.141L1597.66 555.626L1604.56 555.383L1599.12 559.634L1601.49 566.12L1595.76 562.262L1590.33 566.513L1592.23 559.877L1586.5 556.019L1593.4 555.776L1595.3 549.141Z" fill="white"/>
<path d="M1016.28 642.578L1022.25 646.027L1027.38 641.406L1025.95 648.158L1031.93 651.607L1025.06 652.331L1023.63 659.083L1020.82 652.778L1013.96 653.503L1019.09 648.882L1016.28 642.578Z" fill="white"/>
<path d="M541.69 640.336L545.122 646.325L551.878 644.911L547.243 650.026L550.675 656.014L544.378 653.187L539.743 658.301L540.487 651.439L534.19 648.612L540.946 647.198L541.69 640.336Z" fill="white"/>
</svg>
