<svg width="628" height="285" viewBox="0 0 628 285" fill="none" xmlns="http://www.w3.org/2000/svg">
<path d="M64.3809 21.9062V93H49.7324V33.3809H21.168V93H6.51953V21.9062H64.3809ZM104.859 67.6582H86.7441V56.2324H104.859C107.659 56.2324 109.938 55.7767 111.695 54.8652C113.453 53.9212 114.739 52.6191 115.553 50.959C116.367 49.2988 116.773 47.4271 116.773 45.3438C116.773 43.2279 116.367 41.2585 115.553 39.4355C114.739 37.6126 113.453 36.1478 111.695 35.041C109.938 33.9342 107.659 33.3809 104.859 33.3809H91.8223V93H77.1738V21.9062H104.859C110.426 21.9062 115.195 22.9154 119.166 24.9336C123.17 26.9193 126.23 29.6699 128.346 33.1855C130.462 36.7012 131.52 40.7214 131.52 45.2461C131.52 49.8359 130.462 53.8073 128.346 57.1602C126.23 60.513 123.17 63.1009 119.166 64.9238C115.195 66.7467 110.426 67.6582 104.859 67.6582ZM200.025 55.793V59.1621C200.025 64.5658 199.293 69.416 197.828 73.7129C196.363 78.0098 194.296 81.6719 191.627 84.6992C188.958 87.694 185.768 89.9889 182.057 91.584C178.378 93.179 174.293 93.9766 169.801 93.9766C165.341 93.9766 161.256 93.179 157.545 91.584C153.867 89.9889 150.676 87.694 147.975 84.6992C145.273 81.6719 143.173 78.0098 141.676 73.7129C140.211 69.416 139.479 64.5658 139.479 59.1621V55.793C139.479 50.3568 140.211 45.5065 141.676 41.2422C143.141 36.9453 145.208 33.2832 147.877 30.2559C150.579 27.2285 153.769 24.9173 157.447 23.3223C161.158 21.7272 165.243 20.9297 169.703 20.9297C174.195 20.9297 178.281 21.7272 181.959 23.3223C185.67 24.9173 188.86 27.2285 191.529 30.2559C194.231 33.2832 196.314 36.9453 197.779 41.2422C199.277 45.5065 200.025 50.3568 200.025 55.793ZM185.23 59.1621V55.6953C185.23 51.9193 184.889 48.599 184.205 45.7344C183.521 42.8698 182.512 40.4609 181.178 38.5078C179.843 36.5547 178.215 35.0898 176.295 34.1133C174.374 33.1042 172.177 32.5996 169.703 32.5996C167.229 32.5996 165.032 33.1042 163.111 34.1133C161.223 35.0898 159.612 36.5547 158.277 38.5078C156.975 40.4609 155.982 42.8698 155.299 45.7344C154.615 48.599 154.273 51.9193 154.273 55.6953V59.1621C154.273 62.9056 154.615 66.2259 155.299 69.123C155.982 71.9876 156.992 74.4128 158.326 76.3984C159.661 78.3516 161.288 79.8327 163.209 80.8418C165.13 81.8509 167.327 82.3555 169.801 82.3555C172.275 82.3555 174.472 81.8509 176.393 80.8418C178.313 79.8327 179.924 78.3516 181.227 76.3984C182.529 74.4128 183.521 71.9876 184.205 69.123C184.889 66.2259 185.23 62.9056 185.23 59.1621ZM237.428 56.9648V68H209.84V56.9648H237.428ZM277.711 67.6582H259.596V56.2324H277.711C280.51 56.2324 282.789 55.7767 284.547 54.8652C286.305 53.9212 287.59 52.6191 288.404 50.959C289.218 49.2988 289.625 47.4271 289.625 45.3438C289.625 43.2279 289.218 41.2585 288.404 39.4355C287.59 37.6126 286.305 36.1478 284.547 35.041C282.789 33.9342 280.51 33.3809 277.711 33.3809H264.674V93H250.025V21.9062H277.711C283.277 21.9062 288.046 22.9154 292.018 24.9336C296.021 26.9193 299.081 29.6699 301.197 33.1855C303.313 36.7012 304.371 40.7214 304.371 45.2461C304.371 49.8359 303.313 53.8073 301.197 57.1602C299.081 60.513 296.021 63.1009 292.018 64.9238C288.046 66.7467 283.277 67.6582 277.711 67.6582ZM362.184 81.5742V93H324.342V81.5742H362.184ZM329.127 21.9062V93H314.479V21.9062H329.127ZM357.252 50.8613V61.9941H324.342V50.8613H357.252ZM362.135 21.9062V33.3809H324.342V21.9062H362.135ZM411.939 69.416H426.539C426.246 74.2012 424.928 78.4492 422.584 82.1602C420.273 85.8711 417.034 88.7682 412.867 90.8516C408.733 92.9349 403.753 93.9766 397.926 93.9766C393.368 93.9766 389.283 93.1953 385.67 91.6328C382.057 90.0378 378.964 87.7591 376.393 84.7969C373.854 81.8346 371.917 78.2539 370.582 74.0547C369.247 69.8555 368.58 65.1517 368.58 59.9434V55.0117C368.58 49.8034 369.264 45.0996 370.631 40.9004C372.031 36.6686 374.016 33.0716 376.588 30.1094C379.192 27.1471 382.301 24.8685 385.914 23.2734C389.527 21.6784 393.564 20.8809 398.023 20.8809C403.948 20.8809 408.945 21.9551 413.014 24.1035C417.115 26.252 420.289 29.2142 422.535 32.9902C424.814 36.7663 426.181 41.0632 426.637 45.8809H411.988C411.826 43.0163 411.256 40.5911 410.279 38.6055C409.303 36.5872 407.822 35.0736 405.836 34.0645C403.883 33.0228 401.279 32.502 398.023 32.502C395.582 32.502 393.45 32.9577 391.627 33.8691C389.804 34.7806 388.274 36.1641 387.037 38.0195C385.8 39.875 384.872 42.2188 384.254 45.0508C383.668 47.8503 383.375 51.138 383.375 54.9141V59.9434C383.375 63.6217 383.652 66.8607 384.205 69.6602C384.758 72.4271 385.605 74.7708 386.744 76.6914C387.916 78.5794 389.413 80.0117 391.236 80.9883C393.092 81.9323 395.322 82.4043 397.926 82.4043C400.986 82.4043 403.508 81.916 405.494 80.9395C407.48 79.9629 408.993 78.5143 410.035 76.5938C411.109 74.6732 411.744 72.2806 411.939 69.416ZM458.473 67.2188L475.953 21.9062H491.725L467.359 79.2305C466.513 81.1836 465.536 83.0553 464.43 84.8457C463.355 86.6035 462.07 88.1823 460.572 89.582C459.075 90.9492 457.285 92.0397 455.201 92.8535C453.118 93.6348 450.628 94.0254 447.73 94.0254C447.014 94.0254 446.135 94.0091 445.094 93.9766C444.052 93.944 443.222 93.8952 442.604 93.8301L442.506 82.4043C442.896 82.502 443.515 82.5671 444.361 82.5996C445.208 82.5996 445.826 82.5996 446.217 82.5996C448.137 82.5996 449.651 82.3229 450.758 81.7695C451.865 81.2161 452.743 80.4349 453.395 79.4258C454.078 78.3841 454.68 77.1634 455.201 75.7637L458.473 67.2188ZM446.9 21.9062L463.111 57.1113L467.652 73.2734L456.764 73.4688L431.178 21.9062H446.9ZM527.027 67.6582H508.912V56.2324H527.027C529.827 56.2324 532.105 55.7767 533.863 54.8652C535.621 53.9212 536.907 52.6191 537.721 50.959C538.535 49.2988 538.941 47.4271 538.941 45.3438C538.941 43.2279 538.535 41.2585 537.721 39.4355C536.907 37.6126 535.621 36.1478 533.863 35.041C532.105 33.9342 529.827 33.3809 527.027 33.3809H513.99V93H499.342V21.9062H527.027C532.594 21.9062 537.363 22.9154 541.334 24.9336C545.338 26.9193 548.398 29.6699 550.514 33.1855C552.63 36.7012 553.688 40.7214 553.688 45.2461C553.688 49.8359 552.63 53.8073 550.514 57.1602C548.398 60.513 545.338 63.1009 541.334 64.9238C537.363 66.7467 532.594 67.6582 527.027 67.6582ZM605.006 69.416H619.605C619.312 74.2012 617.994 78.4492 615.65 82.1602C613.339 85.8711 610.1 88.7682 605.934 90.8516C601.799 92.9349 596.819 93.9766 590.992 93.9766C586.435 93.9766 582.35 93.1953 578.736 91.6328C575.123 90.0378 572.031 87.7591 569.459 84.7969C566.92 81.8346 564.983 78.2539 563.648 74.0547C562.314 69.8555 561.646 65.1517 561.646 59.9434V55.0117C561.646 49.8034 562.33 45.0996 563.697 40.9004C565.097 36.6686 567.083 33.0716 569.654 30.1094C572.258 27.1471 575.367 24.8685 578.98 23.2734C582.594 21.6784 586.63 20.8809 591.09 20.8809C597.014 20.8809 602.011 21.9551 606.08 24.1035C610.182 26.252 613.355 29.2142 615.602 32.9902C617.88 36.7663 619.247 41.0632 619.703 45.8809H605.055C604.892 43.0163 604.322 40.5911 603.346 38.6055C602.369 36.5872 600.888 35.0736 598.902 34.0645C596.949 33.0228 594.345 32.502 591.09 32.502C588.648 32.502 586.516 32.9577 584.693 33.8691C582.87 34.7806 581.34 36.1641 580.104 38.0195C578.867 39.875 577.939 42.2188 577.32 45.0508C576.734 47.8503 576.441 51.138 576.441 54.9141V59.9434C576.441 63.6217 576.718 66.8607 577.271 69.6602C577.825 72.4271 578.671 74.7708 579.811 76.6914C580.982 78.5794 582.48 80.0117 584.303 80.9883C586.158 81.9323 588.388 82.4043 590.992 82.4043C594.052 82.4043 596.575 81.916 598.561 80.9395C600.546 79.9629 602.06 78.5143 603.102 76.5938C604.176 74.6732 604.811 72.2806 605.006 69.416Z" fill="#626F77"/>
<path d="M9.96484 229V157.906H47.7578V165.719H19.3887V187.154H31.8398C38.9688 187.154 44.2259 189.091 47.6113 192.965C51.0293 196.806 52.7383 201.77 52.7383 207.857C52.7383 214.107 50.9967 219.202 47.5137 223.141C44.0632 227.047 38.8385 229 31.8398 229H9.96484ZM19.3887 193.99V221.92H30.668C35.3555 221.92 38.627 220.569 40.4824 217.867C42.3704 215.133 43.3145 211.812 43.3145 207.906C43.3145 204.033 42.3704 200.745 40.4824 198.043C38.627 195.341 35.3555 193.99 30.668 193.99H19.3887ZM58.5449 229L80.4688 157.906H91.8945L113.574 229H104.199L87.6953 173.531C87.3047 172.229 86.9792 171.09 86.7188 170.113C86.4583 169.104 86.1654 168.079 85.8398 167.037H85.6934C85.4004 168.079 85.1074 169.088 84.8145 170.064C84.554 171.041 84.2285 172.197 83.8379 173.531L67.7246 229H58.5449ZM68.6523 210.738L70.3613 203.902H101.514L103.32 210.738H68.6523ZM142.721 222.75C147.115 222.75 150.501 221.497 152.877 218.99C155.253 216.451 156.441 213.163 156.441 209.127C156.441 205.09 155.351 201.9 153.17 199.557C150.989 197.213 147.457 196.041 142.574 196.041H134.566V188.619H142.184C146.611 188.619 149.801 187.529 151.754 185.348C153.707 183.167 154.684 179.96 154.684 175.729C154.684 172.343 153.756 169.56 151.9 167.379C150.045 165.198 146.985 164.107 142.721 164.107C138.424 164.107 135.12 165.442 132.809 168.111C130.53 170.781 129.391 174.605 129.391 179.586V181.002H120.162V179.586C120.162 172.717 122.164 167.232 126.168 163.131C130.172 158.997 135.755 156.93 142.916 156.93C149.947 156.93 155.188 158.688 158.639 162.203C162.122 165.686 163.863 170.064 163.863 175.338C163.863 179.537 162.919 183.053 161.031 185.885C159.176 188.684 156.783 190.605 153.854 191.646V191.842C157.337 192.818 160.185 194.788 162.398 197.75C164.612 200.68 165.719 204.537 165.719 209.322C165.719 215.507 163.554 220.504 159.225 224.312C154.928 228.089 149.426 229.977 142.721 229.977C135.104 229.977 129.277 227.991 125.24 224.02C121.204 220.048 119.186 214.612 119.186 207.711V205.904H128.512V207.32C128.512 212.659 129.7 216.565 132.076 219.039C134.485 221.513 138.033 222.75 142.721 222.75ZM171.721 229L193.645 157.906H205.07L226.75 229H217.375L200.871 173.531C200.48 172.229 200.155 171.09 199.895 170.113C199.634 169.104 199.341 168.079 199.016 167.037H198.869C198.576 168.079 198.283 169.088 197.99 170.064C197.73 171.041 197.404 172.197 197.014 173.531L180.9 229H171.721ZM181.828 210.738L183.537 203.902H214.689L216.496 210.738H181.828ZM232.312 201.656V194.137H258.143V201.656H232.312ZM289.975 222.75C294.369 222.75 297.755 221.497 300.131 218.99C302.507 216.451 303.695 213.163 303.695 209.127C303.695 205.09 302.605 201.9 300.424 199.557C298.243 197.213 294.711 196.041 289.828 196.041H281.82V188.619H289.438C293.865 188.619 297.055 187.529 299.008 185.348C300.961 183.167 301.938 179.96 301.938 175.729C301.938 172.343 301.01 169.56 299.154 167.379C297.299 165.198 294.239 164.107 289.975 164.107C285.678 164.107 282.374 165.442 280.062 168.111C277.784 170.781 276.645 174.605 276.645 179.586V181.002H267.416V179.586C267.416 172.717 269.418 167.232 273.422 163.131C277.426 158.997 283.008 156.93 290.17 156.93C297.201 156.93 302.442 158.688 305.893 162.203C309.376 165.686 311.117 170.064 311.117 175.338C311.117 179.537 310.173 183.053 308.285 185.885C306.43 188.684 304.037 190.605 301.107 191.646V191.842C304.59 192.818 307.439 194.788 309.652 197.75C311.866 200.68 312.973 204.537 312.973 209.322C312.973 215.507 310.808 220.504 306.479 224.312C302.182 228.089 296.68 229.977 289.975 229.977C282.357 229.977 276.531 227.991 272.494 224.02C268.458 220.048 266.439 214.612 266.439 207.711V205.904H275.766V207.32C275.766 212.659 276.954 216.565 279.33 219.039C281.739 221.513 285.287 222.75 289.975 222.75ZM325.273 229V157.906H334.697V188.18H363.701V157.906H373.125V229H363.701V196.285H334.697V229H325.273ZM382.252 229L404.176 157.906H415.602L437.281 229H427.906L411.402 173.531C411.012 172.229 410.686 171.09 410.426 170.113C410.165 169.104 409.872 168.079 409.547 167.037H409.4C409.107 168.079 408.814 169.088 408.521 170.064C408.261 171.041 407.936 172.197 407.545 173.531L391.432 229H382.252ZM392.359 210.738L394.068 203.902H425.221L427.027 210.738H392.359ZM446.457 229V157.906H455.881V188.18H484.885V157.906H494.309V229H484.885V196.285H455.881V229H446.457ZM558.172 229H548.797V178.854C548.797 177.584 548.813 176.331 548.846 175.094C548.878 173.824 548.927 172.62 548.992 171.48H548.699C548.406 172.522 548.048 173.58 547.625 174.654C547.234 175.729 546.746 176.852 546.16 178.023L520.281 229H509.734V157.906H519.109L519.061 208.199C519.061 209.501 519.044 210.755 519.012 211.959C519.012 213.163 518.979 214.319 518.914 215.426H519.207C519.5 214.319 519.842 213.261 520.232 212.252C520.656 211.21 521.16 210.055 521.746 208.785L547.625 157.906H558.172V229ZM622.035 229H612.66V178.854C612.66 177.584 612.676 176.331 612.709 175.094C612.742 173.824 612.79 172.62 612.855 171.48H612.562C612.27 172.522 611.911 173.58 611.488 174.654C611.098 175.729 610.609 176.852 610.023 178.023L584.145 229H573.598V157.906H582.973L582.924 208.199C582.924 209.501 582.908 210.755 582.875 211.959C582.875 213.163 582.842 214.319 582.777 215.426H583.07C583.363 214.319 583.705 213.261 584.096 212.252C584.519 211.21 585.023 210.055 585.609 208.785L611.488 157.906H622.035V229ZM597.475 145.26C599.558 145.26 601.365 144.609 602.895 143.307C604.457 141.972 605.873 139.889 607.143 137.057L613.539 140.328C611.977 143.876 609.893 146.66 607.289 148.678C604.685 150.663 601.413 151.656 597.475 151.656C593.536 151.656 590.248 150.663 587.611 148.678C585.007 146.66 582.924 143.876 581.361 140.328L587.758 137.057C589.027 139.856 590.427 141.923 591.957 143.258C593.52 144.592 595.359 145.26 597.475 145.26Z" fill="#3BB6B8"/>
<line x1="215" y1="113.5" x2="394" y2="113.5" stroke="#E11D32" stroke-width="7"/>
<line x1="223" y1="281.5" x2="402" y2="281.5" stroke="#E11D32" stroke-width="7"/>
<line x1="355.525" y1="150.525" x2="391.525" y2="114.525" stroke="#E11D32" stroke-width="7"/>
<line x1="225.525" y1="280.525" x2="261.524" y2="244.526" stroke="#E11D32" stroke-width="7"/>
<line x1="5" y1="113.5" x2="124" y2="113.5" stroke="#E11D32" stroke-width="7"/>
<line x1="5" y1="281.5" x2="92" y2="281.5" stroke="#E11D32" stroke-width="7"/>
<line x1="8.5" y1="244" x2="8.5" y2="283" stroke="#E11D32" stroke-width="7"/>
<line x1="8.5" y1="117" x2="8.5" y2="153" stroke="#E11D32" stroke-width="7"/>
<path d="M124.001 237C124.001 237 130 281.446 91.5 281.447C93.5001 281.447 61 281.447 61 281.447" stroke="#E11D32" stroke-width="7"/>
</svg>
